<svg viewBox="0 0 384 221" fill="none" xmlns="http://www.w3.org/2000/svg">
     <g clip-path="url(#clip0_5_185)">
          <path d="M363.687 
               216.86C362.822 216.86 362.046 216.749 361.361 216.527C360.683 216.305 360.115 216.065 359.658 215.807L360.094 213.645H360.198C360.343 213.774 360.53 213.929 360.759 214.108C360.994 214.28 361.292 214.452 361.652 214.624C361.977 214.789 362.348 214.932 362.763 215.054C363.185 215.169 363.635 215.226 364.113 215.226C365.089 215.226 365.854 215.04 366.408 214.667C366.962 214.294 367.239 213.746 367.239 213.022C367.239 212.642 
               367.097 212.352 366.813 212.151C366.529 211.943 366.121 211.775 365.588 211.646C365.318 211.581 364.992 211.509 364.612 211.431C364.238 211.352 363.857 211.259 363.469 211.151C362.659 210.914 362.06 210.574 361.673 210.13C361.285 209.678 361.091 209.13 361.091 208.485C361.091 207.925 361.209 207.402 361.444 206.915C361.68 206.427 362.029 205.979 362.493 205.571C362.936 205.184 363.5 204.872 364.186 204.635C364.871 204.392 365.633 204.27 366.47 204.27C367.163 204.27 367.852 204.359 368.537 204.539C369.229 204.718 369.793 204.94 370.23 205.205L369.814 207.27H369.71C369.6 207.176 369.43 207.051 369.201 206.893C368.98 206.736 368.696 206.574 368.35 206.409C368.052 206.273 367.703 206.155 367.301 206.055C366.906 205.954 366.495 205.904 366.065 205.904C365.2 205.904 364.497 206.094 363.957 206.474C363.417 206.847 363.147 207.359 363.147 208.011C363.147
               208.37 363.279 208.671 363.542 208.915C363.805 209.151 364.206 209.338 364.746 209.474C365.086 209.56 365.439 209.642 365.806 209.721C366.18 209.793 366.54 209.872 366.886 209.958C367.689 210.165 368.291 210.488 368.693 210.925C369.101 211.362 369.305 211.911 369.305 212.57C369.305 213.122 369.177 213.663 368.921 214.194C368.672 214.717 368.308 215.172 367.831 215.559C367.339 215.968 366.744 216.287 366.045 216.516C365.345 216.746 364.56 216.86 363.687 216.86ZM357.733 209.259C357.767 209.051 357.792 208.875 357.806 208.732C357.819 208.588 357.826 208.431 357.826 208.259C357.826 207.492 357.622 206.893 357.214 206.463C356.812 206.033 356.165 205.818 355.272 205.818C354.289 205.818 353.416 206.133 352.655 206.764C351.893 207.395 351.378 208.227 351.108 209.259H357.733ZM353.828 216.85C352.222 216.85 350.962 216.459 350.048 215.678C349.134 214.896 348.677 213.753 348.677 212.248C348.677 210.047 349.349 208.162 350.692 206.592C352.035 205.015 353.697 204.227 355.677 204.227C356.992 204.227 357.999 204.567 358.699 205.248C359.398 205.922 359.747 206.872 359.747 208.097C359.747 208.313 359.716 208.653 359.654 209.119C359.599 209.585 359.505 210.126 359.374 210.742H350.827C350.786 210.95 350.754 211.155 350.734 211.355C350.72 211.556 350.713 211.742 350.713 211.914C350.713 212.925 351.011 213.721 351.606 214.301C352.201 214.875 353.046 215.162 354.14 215.162C354.901 215.162 355.684 215.007 356.487 214.699C357.297 214.391 357.975 214.043 358.522 213.656H358.636L358.211 215.839C357.864 215.968 357.553 216.086 357.276 216.194C356.999 216.301 356.646 216.409 356.217 216.516C355.787 216.624 355.407 216.706 355.074 216.764C354.742 216.821 354.327 216.85 353.828 216.85ZM349.618 204.56L349.265 206.194H345.236L343.99 211.732C343.921 212.011 343.858 212.334 343.803 212.699C343.748 213.058 343.72 213.344 343.72 213.559C343.72 214.083 343.848 214.473 344.104 214.731C344.36 214.982 344.835 215.108 345.527 215.108C345.811 215.108 346.146 215.058 346.534 214.957C346.929 214.857 347.195 214.778 347.334 214.721H347.438L347.074 216.462C346.687 216.563 346.271 216.645 345.828 216.71C345.392 216.774 345.004 216.806 344.665 216.806C343.71 216.806 342.969 216.591 342.443 216.161C341.923 215.724 341.664 215.036 341.664 214.097C341.664 213.868 341.678 213.642 341.705 213.42C341.74 213.19 341.785 212.932 341.84 212.645L343.284 206.194H341.965L342.318 204.56H343.637L344.416 201.109H346.368L345.589 204.56L349.618 204.56ZM337.589 210.237C336.523 210.28 335.574 210.366 334.744 210.495C333.92 210.617 333.238 210.796 332.698 211.033C332.137 211.269 331.711 211.592 331.421 212C331.13 212.402 330.984 212.904 330.984 213.506C330.984 214.022 331.154 214.416 331.493 214.688C331.832 214.961 332.359 215.097 333.072 215.097C333.702 215.097 334.342 214.954 334.993 214.667C335.65 214.373 336.263 214.022 336.831 213.613L337.589 210.237ZM336.457 215.291C336.27 215.405 336.014 215.57 335.689 215.785C335.37 215.993 335.045 216.172 334.712 216.323C334.359 216.488 333.965 216.624 333.529 216.731C333.092 216.846 332.59 216.903 332.023 216.903C331.102 216.903 330.354 216.627 329.78 216.075C329.205 215.516 328.918 214.789 328.918 213.893C328.918 
               212.939 329.119 212.137 329.52 211.484C329.929 210.825 330.531 210.287 331.327 209.872C332.109 209.463 333.051 209.169 334.152 208.99C335.259 208.804 336.519 208.689 337.932 208.646C337.973 208.445 338.008 208.273 338.036 208.13C338.063 207.979 338.077 207.825 338.077 207.667C338.077 207.323 338.011 207.044 337.88 206.829C337.748 206.614 337.561 206.442 337.319 206.313C337.077 206.184 336.793 206.098 336.467 206.055C336.149 206.004 335.796 205.979 335.408 205.979C334.82 205.979 334.148 206.08 333.394 206.28C332.639 206.474 332.026 206.667 331.556 206.861H331.452L331.836 204.84C332.23 204.732 332.809 204.61 333.57 204.474C334.332 204.338 335.062 204.27 335.761 204.27C337.201 204.27 338.281 204.503 339.001 204.969C339.721 205.435 340.081 206.173 340.081 207.184C340.081 207.377 340.064 207.585 340.029 207.807C340.002 208.022 339.967 208.226 339.926 208.42L338.108 216.57H336.166L336.457 215.291ZM329.9 200.453L329.433 202.549H327.231L327.699 200.453H329.9ZM328.862 204.56L326.183 216.57H324.23L326.91 204.56H328.862ZM319.107 216.839C318.373 216.839 317.722 216.749 317.154 216.57C316.594 216.391 316.102 216.108 315.68 215.721C315.271 215.348 314.956 214.878 314.735 214.312C314.513 213.746 314.402 213.086 314.402 212.334C314.402 211.208 314.572 210.158 314.911 209.183C315.25 208.209 315.732 207.352 316.355 206.614C316.957 205.897 317.701 205.331 318.587 204.915C319.474 204.492 320.429 204.281 321.454 204.281C322.132 204.281 322.769 204.377 323.364 204.571C323.967 204.764 324.496 204.994 324.953 205.259L324.527 207.442H324.413C324.275 207.313 324.102 207.162 323.894 206.99C323.686 206.818 323.44 206.657 323.157 206.506C322.873 206.348 322.558 206.219 322.212 206.119C321.866 206.012 321.471 205.958 321.028 205.958C319.685 205.958 318.587 206.546 317.736 207.721C316.891 208.897 316.469 210.327 316.469 212.011C316.469 213.022 316.718 213.8 317.217 214.344C317.722 214.889 318.439 215.162 319.366 215.162C319.802 215.162 320.239 215.097 320.675 214.968C321.111 214.839 321.481 214.699 321.786 214.549C322.125 214.384 322.44 214.208 322.731 214.022C323.022 213.835 323.233 213.696 323.364 213.602H323.479L323.063 215.807C322.461 216.086 321.824 216.33 321.152 216.538C320.481 216.738 319.799 216.839 319.107 216.839ZM313.526 208.807C313.526 209.882 313.367 210.914 313.048 211.904C312.73 212.893 312.28 213.753 311.698 214.484C311.096 215.244 310.4 215.839 309.611 216.269C308.822 216.692 307.901 216.903 306.849 216.903C305.471 216.903 304.395 216.498 303.619 215.688C302.851 214.871 302.466 213.746 302.466 212.312C302.466 211.237 302.622 210.212 302.934 209.237C303.252 208.262 303.709 207.395 304.305 206.635C304.879 205.904 305.582 205.32 306.413 204.883C307.25 204.445 308.164 204.227 309.154 204.227C310.49 204.227 311.553 204.621 312.342 205.409C313.131 206.198 313.526 207.331 313.526 208.807ZM310.348 213.344C310.722 212.771 311.006 212.108 311.2 211.355C311.401 210.603 311.501 209.807 311.501 208.968C311.501 207.965 311.269 207.205 310.805 206.689C310.341 206.173 309.687 205.915 308.843 205.915C308.171 205.915 307.569 206.083 307.036 206.42C306.503 206.75 306.042 207.205 305.655 207.786C305.281 208.352 304.993 209.015 304.793 209.775C304.592 210.535 304.491 211.323 304.491 212.14C304.491 213.129 304.723 213.889 305.187 214.42C305.651 214.95 306.309 215.215 307.16 215.215C307.825 215.215 308.427 215.05 308.967 214.721C309.507 214.391 309.968 213.932 310.348 213.344ZM295.619 216.86C294.754 216.86 293.978 216.749 293.293 216.527C292.614 216.305 292.047 216.065 291.59 215.807L292.026 213.645H292.13C292.275 213.774 292.462 213.929 292.691 214.108C292.926 214.28 293.224 214.452 293.584 214.624C293.909 214.789 294.279 214.932 294.695 215.054C295.117 215.169 295.567 215.226 296.045 215.226C297.021 215.226 297.786 215.04 298.34 214.667C298.894 214.294 299.171 213.746 299.171 213.022C299.171 212.642 299.029 212.352 298.745 212.151C298.461 211.943 298.052 211.775 297.519 211.646C297.249 211.581 296.924 211.509 296.543 211.431C296.169 211.352 295.789 211.259 295.401 211.151C294.591 210.914 293.992 210.574 293.604 210.13C293.217 209.678 293.023 209.13 293.023 208.485C293.023 207.925 293.141 207.402 293.376 206.915C293.611 206.427 293.961 205.979 294.425 205.571C294.868 205.184 295.432 204.872 296.117 204.635C296.803 204.392 297.564 204.27 298.402 204.27C299.094 204.27 299.783 204.359 300.469 204.539C301.161 204.718 301.725 204.94 302.161 205.205L301.746 207.27H301.642C301.531 207.176 301.362 207.051 301.133 206.893C300.912 206.736 300.628 206.574 300.282 206.409C299.984 206.273 299.634 206.155 299.233 206.055C298.838 205.954 298.426 205.904 297.997 205.904C297.132 205.904 296.429 206.094 295.889 206.474C295.349 206.847 295.079 207.359 295.079 208.011C295.079 208.37 295.211 208.671 295.474 208.915C295.737 209.151 296.138 209.338 296.678 209.474C297.017 209.56 297.371 209.642 297.737 209.721C298.111 209.793 298.471 209.872 298.817 209.958C299.621 210.165 300.223 210.488 300.624 210.925C301.033 211.362 301.237 211.911 301.237 212.57C301.237 213.122 301.109 213.663 300.853 214.194C300.604 214.717 300.24 215.172 299.762 215.559C299.271 215.968 298.676 216.287 297.976 216.516C297.277 216.746 296.491 216.86 295.619 216.86ZM285.49 216.86C284.625 216.86 283.849 216.749 283.164 216.527C282.485 216.305 281.918 216.065 281.461 215.807L281.897 213.645H282.001C282.146 213.774 282.333 213.929 282.561 214.108C282.797 214.28 283.095 214.452 283.455 214.624C283.78 214.789 284.15 214.932 284.566 215.054C284.988 215.169 285.438 215.226 285.916 215.226C286.892 215.226 287.657 215.04 288.211 214.667C288.765 214.294 289.042 213.746 289.042 213.022C289.042 212.642 288.9 212.352 288.616 212.151C288.332 211.943 287.923 211.775 287.39 211.646C287.12 211.581 286.795 211.509 286.414 211.431C286.04 211.352 285.66 211.259 285.272 211.151C284.462 210.914 283.863 210.574 283.475 210.13C283.088 209.678 282.894 209.13 282.894 208.485C282.894 207.925 283.012 207.402 283.247 206.915C283.482 206.427 283.832 205.979 284.296 205.571C284.739 205.184 285.303 204.872 285.988 204.635C286.674 204.392 287.435 204.27 288.273 204.27C288.965 204.27 289.654 204.359 290.34 204.539C291.032 204.718 291.596 204.94 292.032 205.205L291.617 207.27H291.513C291.402 207.176 291.233 207.051 291.004 206.893C290.783 206.736 290.499 206.574 290.153 206.409C289.855 206.273 289.505 206.155 289.104 206.055C288.709 205.954 288.297 205.904 287.868 205.904C287.003 205.904 286.3 206.094 285.76 206.474C285.22 206.847 284.95 207.359 284.95 208.011C284.95 208.37 285.081 208.671 285.345 208.915C285.608 209.151 286.009 209.338 286.549 209.474C286.888 209.56 287.241 209.642 287.608 209.721C287.982 209.793 288.342 209.872 288.688 209.958C289.491 210.165 290.094 210.488 290.495 210.925C290.904 211.362 291.108 211.911 291.108 212.57C291.108 213.122 290.98 213.663 290.724 214.194C290.475 214.717 290.111 215.172 289.633 215.559C289.142 215.968 288.546 216.287 287.847 216.516C287.148 216.746 286.362 216.86 285.49 216.86ZM280.813 216.57H278.725L278.206 212.065H271.539L269.005 216.57H266.835L276.036 200.56H278.757L280.813 216.57ZM277.978 210.323L277.012 202.42L272.526 210.323H277.978ZM255.269 216.86C254.404 216.86 253.628 216.749 252.943 216.527C252.264 216.305 251.697 216.065 251.24 215.807L251.676 213.645H251.78C251.925 213.774 252.112 213.929 252.341 214.108C252.576 214.28 252.874 214.452 253.234 214.624C253.559 214.789 253.929 214.932 254.345 215.054C254.767 215.169 255.217 215.226 255.695 215.226C256.671 215.226 257.436 215.04 257.99 214.667C258.544 214.294 258.821 213.746 258.821 213.022C258.821 212.642 258.679 212.352 258.395 212.151C258.111 211.943 257.702 211.775 257.169 211.646C256.899 211.581 256.574 211.509 256.193 211.431C255.819 211.352 255.439 211.259 255.051 211.151C254.241 210.914 253.642 210.574 253.254 210.13C252.867 209.678 252.673 209.13 252.673 208.485C252.673 207.925 252.791 207.402 253.026 206.915C253.261 206.427 253.611 205.979 254.075 205.571C254.518 205.184 255.082 204.872 255.767 204.635C256.453 204.392 257.214 204.27 258.052 204.27C258.744 204.27 259.433 204.359 260.119 204.539C260.811 204.718 261.375 204.94 261.811 205.205L261.396 207.27H261.292C261.181 207.176 261.012 207.051 260.783 206.893C260.562 206.736 260.278 206.574 259.932 206.409C259.634 206.273 259.284 206.155 258.883 206.055C258.488 205.954 258.076 205.904 257.647 205.904C256.782 205.904 256.079 206.094 255.539 206.474C254.999 206.847 254.729 207.359 254.729 208.011C254.729 208.37 254.86 208.671 255.124 208.915C255.387 209.151 255.788 209.338 256.328 209.474C256.667 209.56 257.021 209.642 257.387 209.721C257.761 209.793 258.121 209.872 258.467 209.958C259.271 210.165 259.873 210.488 260.274 210.925C260.683 211.362 260.887 211.911 260.887 212.57C260.887 213.122 260.759 213.663 260.503 214.194C260.254 214.717 
               259.89 215.172 259.412 215.559C258.921 215.968 258.326 216.287 257.626 216.516C256.927 216.746 256.141 216.86 255.269 216.86ZM252.887 206.689H252.783C252.506 206.617 252.246 206.567 252.004 206.538C251.769 206.503 251.481 206.485 251.142 206.485C250.491 206.485 249.844 206.639 249.2 206.947C248.563 207.248 247.951 207.614 247.362 208.044L245.493 216.57H243.52L246.168 204.56H248.141L247.746 206.334C248.667 205.668 249.446 205.205 250.083 204.947C250.727 204.689 251.343 204.56 251.931 204.56C252.271 204.56 252.516 204.571 252.669 204.592C252.821 204.607 253.043 204.639 253.333 204.689L252.887 206.689ZM241.19 209.259C241.224 209.051 241.249 208.875 241.262 208.732C241.276 208.588 241.283 208.431 241.283 208.259C241.283 207.492 241.079 206.893 240.671 206.463C240.269 206.033 239.622 205.818 238.729 205.818C237.746 205.818 236.873 206.133 236.112 206.764C235.35 207.395 234.834 208.227 234.564 209.259H241.19ZM237.285 216.85C235.679 216.85 234.419 216.459 233.505 215.678C232.591 214.896 232.134 213.753 232.134 212.248C232.134 210.047 232.806 208.162 234.149 206.592C235.492 205.015 237.154 204.227 239.134 204.227C240.449 204.227 241.456 204.567 242.156 205.248C242.855 205.922 243.204 206.872 243.204 208.097C243.204 208.313 243.173 208.653 243.111 209.119C243.056 209.585 242.962 210.126 242.831 210.742H234.284C234.242 210.95 234.211 211.155 234.191 211.355C234.177 211.556 234.17 211.742 234.17 211.914C234.17 212.925 234.467 213.721 235.063 214.301C235.658 214.875 236.503 215.162 237.597 215.162C238.358 215.162 239.141 215.007 239.944 214.699C240.754 214.391 241.432 214.043 241.979 213.656H242.093L241.668 215.839C241.321 215.968 241.01 216.086 240.733 216.194C240.456 216.301 240.103 216.409 239.674 216.516C239.244 216.624 238.864 216.706 238.531 216.764C238.199 216.821 237.784 216.85 237.285 216.85ZM231.289 208.356C231.289 209.545 231.109 210.664 230.749 211.71C230.396 212.757 229.925 213.645 229.337 214.377C228.741 215.129 228.049 215.724 227.26 216.161C226.471 216.592 225.63 216.807 224.736 216.807C224.113 216.807 223.539 216.731 223.013 216.581C222.493 216.437 222.019 216.226 221.59 215.946L220.468 221H218.516L222.182 204.56H224.134L223.854 205.818C224.498 205.352 225.131 204.972 225.754 204.678C226.377 204.377 227.066 204.227 227.821 204.227C228.949 204.227 229.808 204.589 230.396 205.313C230.991 206.037 231.289 207.051 231.289 208.356ZM229.243 208.743C229.243 207.89 229.063 207.234 228.703 206.775C228.343 206.309 227.769 206.076 226.98 206.076C226.405 206.076 225.81 206.223 225.193 206.517C224.577 206.811 224.003 207.144 223.47 207.517L221.953 214.323C222.403 214.574 222.833 214.76 223.241 214.882C223.65 215.004 224.145 215.065 224.726 215.065C225.439 215.065 226.08 214.886 226.647 214.527C227.222 214.169 227.696 213.703 228.07 213.129C228.465 212.527 228.759 211.857 228.953 211.119C229.146 210.38 229.243 209.588 229.243 208.743ZM218.948 208.807C218.948 209.882 218.789 210.915 218.471 211.904C218.152 212.893 217.702 213.753 217.121 214.484C216.518 215.244 215.822 215.839 215.033 216.269C214.244 216.692 213.323 216.903 212.271 216.903C210.893 216.903 209.817 216.498 209.041 215.688C208.273 214.871 207.889 213.746 207.889 212.312C207.889 211.237 208.044 210.212 208.356 209.237C208.674 208.262 209.131 207.395 209.727 206.635C210.301 205.904 211.004 205.32 211.835 204.883C212.672 204.445 213.586 204.227 214.576 204.227C215.912 204.227 216.975 204.621 217.764 205.41C218.554 206.198 218.948 207.331 218.948 208.807ZM215.771 213.344C216.144 212.771 216.428 212.108 216.622 211.355C216.823 210.603 216.923 209.807 216.923 208.968C216.923 207.965 216.691 207.205 216.227 206.689C215.764 206.173 215.109 205.915 214.265 205.915C213.593 205.915 212.991 206.083 212.458 206.42C211.925 206.75 211.464 207.205 211.077 207.786C210.703 208.352 210.416 209.015 210.215 209.775C210.014 210.535 209.914 211.323 209.914 212.14C209.914 213.129 210.146 213.889 210.609 214.42C211.073 214.95 211.731 215.215 212.582 215.215C213.247 215.215 213.849 215.05 214.389 214.721C214.929 214.391 215.39 213.932 215.771 213.344ZM208.373 199.84L204.634 216.57H202.682L206.42 199.84H208.373ZM200.331 209.259C200.366 209.051 200.39 208.875 200.404 208.732C200.417 208.589 200.424 208.431 200.424 208.259C200.424 207.492 200.22 206.893 199.812 206.463C199.41 206.033 198.763 205.818 197.87 205.818C196.887 205.818 196.014 206.134 195.253 206.764C194.491 207.395 193.975 208.227 193.705 209.259H200.331ZM196.426 216.85C194.82 216.85 193.56 216.459 192.646 215.678C191.732 214.896 191.276 213.753 191.276 212.248C191.276 210.047 191.947 208.162 193.29 206.592C194.633 205.015 196.295 204.227 198.275 204.227C199.59 204.227 200.597 204.567 201.297 205.248C201.996 205.922 202.346 206.872 202.346 208.098C202.346 208.313 202.314 208.653 202.252 209.119C202.197 209.585 202.103 210.126 201.972 210.743H193.425C193.383 210.95 193.352 211.155 193.332 211.355C193.318 211.556 193.311 211.742 193.311 211.914C193.311 212.925 193.609 213.721 194.204 214.301C194.799 214.875 195.644 215.162 196.738 215.162C197.499 215.162 198.282 215.007 199.085 214.699C199.895 214.391 200.573 214.043 201.12 213.656H201.234L200.809 215.839C200.462 215.968 200.151 216.086 199.874 216.194C199.597 216.301 199.244 216.409 198.815 216.516C198.385 216.624 198.005 216.706 197.672 216.764C197.34 216.821 196.925 216.85 196.426 216.85ZM191.895 204.56L184.521 216.57H182.58L180.596 204.56H182.59L184.054 214.119L189.745 204.56H191.895ZM176.999 209.259C177.034 209.051 177.058 208.875 177.072 208.732C177.086 208.589 177.093 208.431 177.093 208.259C177.093 207.492 176.888 206.893 176.48 206.463C176.078 206.033 175.431 205.818 174.538 205.818C173.555 205.818 172.683 206.134 171.921 206.764C171.159 207.395 170.644 208.227 170.374 209.259H176.999ZM173.094 216.85C171.488 216.85 170.228 216.459 169.314 215.678C168.401 214.896 167.944 213.753 167.944 212.248C167.944 210.047 168.615 208.162 169.958 206.592C171.301 205.015 172.963 204.227 174.943 204.227C176.258 204.227 177.266 204.567 177.965 205.248C178.664 205.922 179.014 206.872 179.014 208.098C179.014 208.313 178.982 208.653 178.92 209.119C178.865 209.585 178.771 210.126 178.64 210.743H170.093C170.052 210.95 170.021 211.155 170 211.355C169.986 211.556 169.979 211.742 169.979 211.914C169.979 212.925 170.277 213.721 170.872 214.301C171.468 214.875 172.312 215.162 173.406 215.162C174.168 215.162 174.95 215.007 175.753 214.699C176.563 214.391 177.241 214.043 177.788 213.656H177.903L177.477 215.839C177.131 215.968 176.819 216.086 176.542 216.194C176.265 216.301 175.912 216.409 175.483 216.516C175.054 216.624 174.673 216.706 174.341 216.764C174.008 216.821 173.593 216.85 173.094 216.85ZM167.472 206.7C167.472 208.449 167.043 210.105 166.185 211.667C165.326 213.23 164.153 214.438 162.664 215.291C161.75 215.8 160.816 216.14 159.86 216.312C158.905 216.484 157.822 216.57 156.61 216.57H152.435L156.008 200.56H159.601C160.722 200.56 161.743 200.643 162.664 200.808C163.592 200.965 164.44 201.309 165.208 201.84C165.942 202.349 166.503 203.015 166.891 203.84C167.278 204.657 167.472 205.61 167.472 206.7ZM165.302 206.883C165.302 206.065 165.16 205.363 164.876 204.775C164.599 204.18 164.177 203.686 163.609 203.291C163.048 202.904 162.45 202.646 161.813 202.517C161.176 202.381 160.369 202.313 159.393 202.313H157.68L154.876 214.818H157.025C158.015 214.818 158.898 214.735 159.673 214.57C160.456 214.398 161.193 214.108 161.885 213.699C163 213.04 163.848 212.09 164.43 210.85C165.011 209.603 165.302 208.28 165.302 206.883ZM142.427 210.237C141.361 210.28 140.412 210.366 139.581 210.495C138.758 210.617 138.076 210.796 137.536 211.033C136.975 211.269 136.549 211.592 136.258 212.001C135.968 212.402 135.822 212.904 135.822 213.506C135.822 214.022 135.992 214.416 136.331 214.688C136.67 214.961 137.197 215.097 137.91 215.097C138.54 215.097 139.18 214.954 139.831 214.667C140.488 214.373 141.101 214.022 141.669 213.613L142.427 210.237ZM141.295 215.291C141.108 215.405 140.852 215.57 140.527 215.785C140.208 215.993 139.883 216.172 139.55 216.323C139.197 216.488 138.803 216.624 138.367 216.731C137.93 216.846 137.428 216.903 136.861 216.903C135.94 216.903 135.192 216.627 134.618 216.075C134.043 215.516 133.756 214.789 133.756 213.893C133.756 212.939 133.957 212.137 134.358 211.484C134.767 210.825 135.369 210.287 136.165 209.872C136.947 209.463 137.889 209.169 138.99 208.99C140.097 208.804 141.357 208.689 142.77 208.646C142.811 208.445 142.846 208.273 142.873 208.13C142.901 207.979 142.915 207.825 142.915 207.667C142.915 207.323 142.849 207.044 142.718 206.829C142.586 
               206.614 142.399 206.442 142.157 206.313C141.915 206.184 141.631 206.098 141.305 206.055C140.987 206.004 140.634 205.979 140.246 205.979C139.658 205.979 138.986 206.08 138.232 206.28C137.477 206.474 136.864 206.668 136.393 206.861H136.29L136.674 204.84C137.068 204.732 137.646 204.61 138.408 204.474C139.17 204.338 139.9 204.27 140.599 204.27C142.039 204.27 143.119 204.503 143.839 204.969C144.559 205.435 144.919 206.173 144.919 207.184C144.919 207.377 144.902 207.585 144.867 207.807C144.84 208.022 144.805 208.227 144.763 208.42L142.946 216.57H141.004L141.295 215.291ZM134.78 199.84L131.041 216.57H129.089L129.369 215.312C128.49 215.936 127.781 216.355 127.241 216.57C126.707 216.792 126.126 216.903 125.496 216.903C124.402 216.903 123.533 216.545 122.889 215.828C122.252 215.111 121.934 214.068 121.934 212.699C121.934 211.545 122.107 210.456 122.453 209.431C122.799 208.399 123.27 207.495 123.866 206.721C124.454 205.954 125.15 205.349 125.953 204.904C126.756 204.453 127.607 204.227 128.507 204.227C129.124 204.227 129.691 204.295 130.211 204.431C130.73 204.567 131.214 204.772 131.664 205.044L132.827 199.84H134.78ZM131.291 206.721C130.827 206.47 130.37 206.288 129.92 206.173C129.477 206.051 129.002 205.99 128.497 205.99C127.777 205.99 127.133 206.169 126.566 206.528C126.005 206.886 125.524 207.377 125.122 208.001C124.755 208.567 124.471 209.248 124.271 210.044C124.077 210.839 123.98 211.61 123.98 212.355C123.98 213.23 124.16 213.9 124.52 214.366C124.887 214.825 125.479 215.054 126.296 215.054C126.877 215.054 127.469 214.904 128.071 214.602C128.681 214.301 129.241 213.972 129.754 213.613L131.291 206.721ZM122.439 200.453L121.972 202.55H119.77L120.237 200.453H122.439ZM121.4 204.56L118.721 216.57H116.769L119.448 204.56H121.4ZM113.764 215.28C113.092 215.746 112.389 216.079 111.656 216.28C110.922 216.473 110.018 216.57 108.945 216.57H103.265L106.827 200.56H111.271C112.4 200.56 113.237 200.6 113.784 200.679C114.338 200.758 114.844 200.94 115.301 201.227C115.681 201.471 115.965 201.783 116.152 202.162C116.346 202.535 116.443 202.951 116.443 203.41C116.443 204.334 116.19 205.151 115.685 205.861C115.179 206.571 114.48 207.119 113.587 207.506V207.592C114.418 207.786 115.051 208.148 115.487 208.678C115.931 209.209 116.152 209.889 116.152 210.721C116.152 211.631 115.931 212.495 115.487 213.312C115.051 214.122 114.477 214.778 113.764 215.28ZM114.21 204.001C114.21 203.7 114.162 203.453 114.065 203.259C113.968 203.058 113.829 202.894 113.649 202.765C113.359 202.564 112.995 202.438 112.559 202.388C112.123 202.331 111.559 202.302 110.866 202.302H108.519L107.46 207.055H110.16C110.756 207.055 111.275 207.012 111.718 206.926C112.161 206.832 112.549 206.689 112.881 206.496C113.31 206.238 113.639 205.872 113.867 205.399C114.096 204.919 114.21 204.453 114.21 204.001ZM113.982 210.872C113.982 210.47 113.916 210.148 113.784 209.904C113.653 209.653 113.417 209.42 113.078 209.205C112.801 209.026 112.445 208.908 112.009 208.85C111.579 208.793 110.981 208.764 110.212 208.764H107.086L105.726 214.828H108.561C109.482 214.828 110.229 214.778 110.804 214.678C111.386 214.57 111.887 214.384 112.31 214.119C112.857 213.782 113.272 213.323 113.556 212.742C113.84 212.155 113.982 211.531 113.982 210.872ZM93.2667 210.237C92.2006 210.28 91.2521 210.366 90.4213 210.495C89.5975 210.617 88.9156 210.796 88.3755 211.033C87.8148 211.269 87.389 211.592 87.0982 212.001C86.8075 212.402 86.6621 212.904 86.6621 213.506C86.6621 214.022 86.8317 214.416 87.1709 214.688C87.5102 214.961 88.0363 215.097 88.7494 215.097C89.3794 215.097 90.0198 214.954 90.6705 214.667C91.3282 214.373 91.9409 214.022 92.5086 213.613L93.2667 210.237ZM92.1348 215.291C91.9479 215.405 91.6917 215.57 91.3663 215.785C91.0479 215.993 90.7225 216.172 90.3902 216.323C90.0371 216.488 89.6425 216.624 89.2063 216.731C88.7702 216.846 88.2682 216.903 87.7006 216.903C86.7798 216.903 86.0321 216.627 85.4575 216.075C84.8829 215.516 84.5956 214.789 84.5956 213.893C84.5956 212.939 84.7963 212.137 85.1979 211.484C85.6063 210.825 86.2086 210.287 87.0048 209.872C87.7871 209.463 88.7286 209.169 89.8294 208.99C90.9371 208.804 92.1971 208.689 93.6094 208.646C93.6509 208.445 93.6856 208.273 93.7132 208.13C93.7409 207.979 93.7548 207.825 93.7548 207.667C93.7548 207.323 93.689 207.044 93.5575 206.829C93.4259 206.614 93.239 206.442 92.9967 206.313C92.7544 206.184 92.4706 206.098 92.1452 206.055C91.8267 206.004 91.4736 205.979 91.0859 205.979C90.4975 205.979 89.8259 206.08 89.0713 206.28C88.3167 206.474 87.704 206.668 87.2332 206.861H87.1294L87.5136 204.84C87.9082 204.732 88.4863 204.61 89.2479 204.474C90.0094 204.338 90.7398 204.27 91.439 204.27C92.879 204.27 93.959 204.503 94.679 204.969C95.399 205.435 95.759 206.173 95.759 207.184C95.759 207.377 95.7417 207.585 95.7071 207.807C95.6794 208.022 95.6448 208.227 95.6033 208.42L93.786 216.57H91.844L92.1348 215.291ZM85.6196 199.84L81.8811 216.57H79.9288L80.2092 215.312C79.33 215.936 78.6204 216.355 78.0804 216.57C77.5473 216.792 76.9657 216.903 76.3357 216.903C75.2419 216.903 74.3731 216.545 73.7292 215.828C73.0923 215.111 72.7738 214.068 72.7738 212.699C72.7738 211.545 72.9469 210.456 73.2931 209.431C73.6392 208.399 74.11 207.495 74.7054 206.721C75.2938 205.954 75.9896 205.349 76.7927 204.904C77.5957 204.453 78.4473 204.227 79.3473 204.227C79.9634 204.227 80.5311 204.295 81.0504 204.431C81.5696 204.567 82.0542 204.772 82.5042 205.044L83.6673 199.84H85.6196ZM82.1304 206.721C81.6665 206.47 81.2096 206.288 80.7596 206.173C80.3165 206.051 79.8423 205.99 79.3369 205.99C78.6169 205.99 77.9731 206.169 77.4054 206.528C76.8446 206.886 76.3634 207.377 75.9619 208.001C75.595 208.567 75.3111 209.248 75.1104 210.044C74.9165 210.839 74.8196 211.61 74.8196 212.355C74.8196 213.23 74.9996 213.9 75.3596 214.366C75.7265 214.825 76.3184 215.054 77.1354 215.054C77.7169 215.054 78.3088 214.904 78.9111 214.602C79.5204 214.301 80.0811 213.972 80.5934 213.613L82.1304 206.721ZM73.2786 200.453L72.8113 202.55H70.6098L71.0771 200.453H73.2786ZM72.2402 204.56L69.5609 216.57H67.6086L70.2879 204.56H72.2402ZM64.6034 215.28C63.9319 215.746 63.2292 216.079 62.4954 216.28C61.7615 216.473 60.8581 216.57 59.785 216.57H54.1046L57.6665 200.56H62.1111C63.2396 200.56 64.0773 200.6 64.6242 200.679C65.1781 200.758 65.6834 200.94 66.1404 201.227C66.5211 201.471 66.805 201.783 66.9919 202.162C67.1858 202.535 67.2827 202.951 67.2827 203.41C67.2827 204.334 67.03 205.151 66.5246 205.861C66.0192 206.571 65.32 207.119 64.4269 207.506V207.592C65.2577 207.786 65.8911 208.148 66.3273 208.678C66.7704 209.209 66.9919 209.889 66.9919 210.721C66.9919 211.631 66.7704 212.495 66.3273 213.312C65.8911 214.122 65.3165 214.778 64.6034 215.28ZM65.05 204.001C65.05 203.7 65.0015 203.453 64.9046 203.259C64.8077 203.058 64.6692 202.894 64.4892 202.765C64.1984 202.564 63.835 202.438 63.3988 202.388C62.9627 202.331 62.3984 202.302 61.7061 202.302H59.3592L58.3 207.055H61C61.5954 207.055 62.1146 207.012 62.5577 206.926C63.0007 206.832 63.3884 206.689 63.7207 206.496C64.15 206.238 64.4788 205.872 64.7073 205.399C64.9358 204.919 65.05 204.453 65.05 204.001ZM64.8215 210.872C64.8215 210.47 64.7558 210.148 64.6242 209.904C64.4927 209.653 64.2573 209.42 63.9181 209.205C63.6411 209.026 63.2846 208.908 62.8484 208.85C62.4192 208.793 61.8204 208.764 61.0519 208.764H57.9261L56.5658 214.828H59.4008C60.3215 214.828 61.0692 214.778 61.6438 214.678C62.2254 214.57 62.7273 214.384 63.1496 214.119C63.6965 213.782 64.1119 213.323 64.3958 212.742C64.6796 212.155 64.8215 211.531 64.8215 210.872ZM139.584 0.00124072C135.815 0.0530094 131.656 1.71371 128.694 5.05311C127.648 6.23261 119.779 19.0284 108.939 37.1759C99.0292 53.7652 90.3397 68.0762 89.6291 68.978C88.102 70.9161 85.3698 73.0325 82.9363 74.1626C81.2873 74.9284 79.2602 74.986 46.6875 75.1916L12.1857 75.4092L9.45818 76.7166C5.04633 78.8308 1.8381 82.5361 0.566158 86.9856C-0.449232 90.5378 -0.10595 93.2165 1.65366 95.4734C2.47664 96.529 10.5558 104.063 19.6069 112.215C45.6163 135.64 44.4668 134.532 45.2084 136.892C45.7087 138.483 45.7185 139.699 45.2486 141.878C44.6522 144.644 43.8845 146.004 26.116 175.761C6.64086 208.376 5.96443 209.655 6.32545 213.153C6.65891 216.386 8.83948 219.216 12.0088 220.53C13.9965 221.354 18.3035 221.058 20.8204 219.924C21.9056 219.435 34.7796 211.759 49.4294 202.866C62.2999 195.054 73.8574 188.236 78.0574 185.959L83.9684 171.728L80.7325 171.687L79.8484 170.264C78.5041 168.102 79.6451 165.249 82.6282 163.315C82.8957 163.142 84.8055 163.008 87.6301 162.91L91.6606 153.207C88.9297 153.54 87.2117 154.108 84.7281 155.088C83.2246 155.681 79.9962 157.338 77.5535 158.769C72.4895 161.736 69.7376 162.541 65.7715 162.216C57.6783 161.553 53.8884 153.903 57.492 145.506C60.2455 139.09 66.8774 134.204 73.5533 133.674C77.6365 133.35 80.0932 134.176 83.1564 136.905C87.4408 140.721 89.8029 142.217 95.9841 142.796L107.96 113.96C96.5636 113.971 94.4272 114.08 91.3859 114.807C87.2781 115.788 83.6262 117.321 79.9212 119.619C75.4173 122.412 73.1719 123.238 69.5213 123.445C66.8691 123.596 65.7512 123.445 63.9699 122.696C61.0547 121.471 58.6985 118.615 57.9701 115.422C57.4637 113.202 57.5197 112.401 58.4034 109.172C59.2153 106.208 59.7285 105.059 60.9768 103.414C63.3127 100.336 66.6869 97.6091 69.8582 96.2363C72.2382 95.2061 73.2314 95.0139 76.1707 95.0139C80.4222 95.0139 82.5807 95.8489 85.3307 98.5582C86.423 99.6344 88.3559 101.085 89.626 101.783C93.7994 104.073 95.4762 104.337 111.945 104.365L116.062 94.4543C106.978 94.3154 102.174 94.1087 101.64 93.8044C100.533 93.1733 100.062 91.3326 100.548 89.5457C100.812 88.5775 101.452 87.7583 102.722 86.7627L104.523 85.3522L111.32 85.0641C113.822 84.958 116.852 84.8842 120.055 84.8396L124.45 74.2581C124.531 74.3295 124.612 74.4024 124.703 74.4667C124.813 74.5439 
               124.936 74.6125 125.083 74.6745C126.13 75.1154 128.465 75.1905 137.004 75.1856C137.035 75.1855 137.058 75.1848 137.089 75.1848C151.57 75.1735 155.028 74.4438 162.364 69.8645C167.898 66.4103 169.472 65.863 173.923 65.8432C174.65 65.8401 175.222 65.849 175.741 65.8682C172.449 65.4825 168.979 65.2782 165.31 65.2782H142.626C145.074 65.0007 145.884 64.4582 147.466 63.1398C151.774 59.5479 151.758 59.7261 150.256 31.6858C149.542 18.3557 148.792 6.76303 148.589 5.92442C147.626 1.95055 143.855 -0.0574304 139.584 0.00124072ZM120.055 84.8396L116.062 94.4543C117.197 94.4716 118.137 94.4922 119.416 94.5073C135.303 94.6956 136.365 94.7577 137.224 95.5553C139.354 97.533 138.114 101.888 134.951 103.541C133.441 104.33 132.334 104.377 115.259 104.372C114.017 104.372 113.048 104.367 111.945 104.365L107.96 113.96C108.247 113.959 108.388 113.957 108.687 113.956C124.475 113.948 128.285 113.592 134.781 110.015L145.049 85.2923C144.899 85.2723 144.759 85.2428 144.607 85.2248C144.584 85.2222 144.536 85.2206 144.513 85.2179C144.538 85.2207 144.583 85.2219 144.607 85.2248C142.312 84.9536 135.728 84.8075 128.574 84.7941C128.784 84.7944 128.999 84.7934 129.209 84.7941C128.668 84.7925 128.139 84.7888 127.591 84.7888C127.149 84.7888 126.703 84.7923 126.258 84.7933C126.471 84.7929 126.68 84.7936 126.893 84.7933C124.605 84.796 122.286 84.8085 120.055 84.8396ZM145.049 85.2923C149.743 85.9192 153.252 87.5365 157.337 90.9683C162.471 95.282 166.805 95.8365 173.251 93.0028C173.742 92.7873 174.204 92.5592 174.654 92.3242C174.595 90.2906 173.932 88.6518 172.66 87.411C171.696 86.4697 170.425 85.7047 168.848 85.1164C168.33 84.9229 167.777 84.7492 167.192 84.5939C167.182 84.5911 167.172 84.5883 167.162 84.5856C166.587 84.4339 165.979 84.3009 165.341 84.1859C163.343 83.8264 161.036 83.646 158.416 83.646H145.733L145.049 85.2923ZM174.654 92.3242C174.714 94.4045 174.143 96.8987 172.934 99.8087C170.391 105.931 166.893 110.37 162.44 113.125C161.659 113.6 160.825 114.016 159.968 114.406C159.697 110.174 157.428 106.533 153.332 105.083C151.926 104.586 150.499 104.338 149.009 104.347C145.732 104.368 142.155 105.634 137.843 108.234C136.735 108.903 135.73 109.492 134.781 110.015L131.811 117.166H141.126C141.94 115.987 143.223 114.984 144.812 114.393C146.607 113.725 148.78 114.464 149.578 116.015C149.726 116.301 149.813 116.622 149.858 116.961C148.491 117.089 147.078 117.166 145.598 117.166H141.126C140.382 118.241 140.028 119.462 140.202 120.656C140.301 121.333 140.539 121.901 140.89 122.35C140.977 122.463 141.072 122.567 141.174 122.665C142.287 123.737 144.196 123.895 146.332 122.927C148.545 121.925 150.13 119.063 149.86 116.971C149.952 116.962 150.041 116.95 150.132 116.94C150.133 116.94 150.133 116.94 150.134 116.94C150.378 116.916 150.62 116.888 150.862 116.859C151.415 116.794 151.961 116.72 152.495 116.633C152.715 116.597 152.931 116.556 153.148 116.516C153.148 116.516 153.149 116.516 153.148 116.516C153.606 116.432 154.058 116.339 154.501 116.239C154.705 116.193 154.91 116.149 155.111 116.099C155.112 116.099 155.113 116.099 155.114 116.099C155.663 115.963 156.2 115.813 156.726 115.651C156.903 115.597 157.078 115.539 157.253 115.481C157.767 115.313 158.272 115.135 158.764 114.94C158.875 114.896 158.984 114.849 159.095 114.804C159.236 114.745 159.373 114.683 159.513 114.624C159.665 114.558 159.821 114.497 159.97 114.428C159.975 114.499 159.979 114.571 159.982 114.643C160.154 118.344 158.814 122.468 155.817 125.97C153.819 128.304 149.754 131.263 147.121 132.302C141.616 134.474 136.909 133.71 132.39 129.91C126.769 125.183 123.506 123.984 116.255 123.984C111.689 123.984 111.566 124.009 109.977 125.258C109.622 125.537 109.314 125.857 109.031 126.192C108.887 126.362 108.738 126.531 108.614 126.711C108.61 126.717 108.605 126.723 108.601 126.729C108.417 126.999 108.255 127.278 108.117 127.563C107.981 127.844 107.868 128.13 107.779 128.417C107.497 129.334 107.467 130.259 107.725 131.059C107.725 131.058 107.725 131.059 107.725 131.059C107.782 131.237 107.855 131.409 107.942 131.574C107.963 131.613 107.98 131.654 108.002 131.693L108.72 132.914L117.171 133.133C124.232 133.315 126.467 133.503 127.264 134.89H140.075C146.754 134.89 151.683 136.298 154.864 139.114C156.281 140.309 157.087 141.972 157.287 144.1C155.806 143.523 154.256 143.234 152.621 143.274C149.578 143.349 146.26 144.493 142.632 146.709C140.701 147.889 137.736 149.443 136.044 150.162C131.507 152.09 128.637 152.591 117.051 152.707L112.865 162.785C120.088 162.886 126.107 163.092 127.224 163.405C130.251 164.253 133.279 166.061 136.301 168.823C137.225 169.668 138.119 170.326 139.035 170.847C137.761 171.343 136.455 171.764 135.105 172.083C131.047 173.002 126.997 173.461 122.953 173.461H116.398C116.791 174.052 117.112 174.928 117.172 175.665C117.172 175.665 117.172 175.666 117.172 175.666C117.174 175.693 117.173 175.708 117.175 175.734C117.289 177.193 117.164 177.586 116.147 178.945C114.325 181.385 113.451 181.816 104.548 181.998C103.276 182.024 101.841 182.045 100.215 182.066C98.6085 182.086 97.1869 182.108 95.9059 182.136C95.454 182.147 95.1042 182.162 94.6871 182.173C93.9036 182.195 93.0944 182.215 92.4195 182.244C88.3643 182.42 86.096 182.765 83.6345 183.581C82.3983 183.991 81.1123 184.519 79.5235 185.205C79.2557 185.321 78.7304 185.594 78.0574 185.959L75.4292 192.287H114.857C121.352 192.287 127.874 191.705 134.423 190.542C140.972 189.379 147.208 187.42 153.131 184.665C159.08 181.849 164.412 178.084 169.128 173.37C173.929 168.594 177.818 162.624 180.793 155.461C183.666 148.543 184.497 143.002 183.285 138.839C182.16 134.615 179.793 131.461 176.185 129.38C172.663 127.237 168.757 125.798 164.467 125.064C169.005 124.023 173.533 122.339 178.053 120.012C182.634 117.686 186.76 114.686 190.43 111.013C194.187 107.278 197.146 102.808 199.307 97.6043C202.74 89.3391 203.186 82.8802 200.646 78.2272C198.131 73.513 193.666 70.1767 187.249 68.2175C184.399 67.3389 181.346 66.6684 178.111 66.1837C178.714 66.3635 179.27 66.6288 179.982 67.0323C182.47 68.4412 184.533 71.3608 185.079 74.2438C185.129 74.5108 185.162 74.7669 185.187 75.0241C185.192 75.0888 185.199 75.1541 185.203 75.219C185.221 75.4801 185.23 75.7418 185.219 76.019C185.177 77.0509 184.924 78.2654 184.396 80.2019C183.461 83.63 183.099 84.4078 181.514 86.3935C179.278 89.1961 177.289 90.9331 174.719 92.2886C174.697 92.3002 174.676 92.3126 174.654 92.3242ZM116.398 173.461C116.286 173.293 116.169 173.145 116.049 173.034C115.393 172.425 114.756 172.22 109.004 172.081L108.431 173.461H116.398ZM109.004 172.081L112.865 162.785C108.509 162.724 103.721 162.703 99.261 162.724C94.8015 162.744 90.6706 162.805 87.6301 162.91L83.9684 171.728L85.2206 171.744L97.8996 171.905C102.99 171.97 106.45 172.019 109.004 172.081ZM87.6301 162.91C88.3902 162.884 89.2189 162.86 90.1034 162.839C89.2149 162.86 88.3911 162.884 87.6301 162.91ZM117.051 152.707L121.1 142.956C118.735 143.142 115.109 143.152 109.155 143.152C106.172 143.152 103.649 143.136 101.472 143.082C101.434 143.082 101.403 143.08 101.365 143.079C100.347 143.053 99.3985 143.02 98.5234 142.975C97.6085 142.928 96.7654 142.869 95.9841 142.796L91.6606 153.207C94.1959 152.898 97.6327 152.794 103.367 152.759C105.194 152.749 107.23 152.744 109.575 152.743C109.729 152.743 109.822 152.742 109.973 152.74C112.662 152.739 114.977 152.728 117.051 152.707ZM121.1 142.956C124.715 142.672 125.355 141.973 126.644 140.248C127.737 138.785 127.852 138.431 127.726 136.892C127.656 136.033 127.549 135.386 127.264 134.89L124.45 134.89L121.1 142.956ZM116.255 123.984C116.208 123.984 116.19 123.984 116.143 123.984C116.185 123.984 116.213 123.984 116.255 123.984ZM128.179 65.2782L142.626 65.2782C141.163 65.4441 139.076 65.5164 135.92 65.6005C135.836 65.6027 135.778 65.605 135.693 65.6074L131.18 65.7264L130.043 65.7568L127.957 65.8114L124.45 74.2581C122.647 72.6807 123.215 69.4354 125.764 67.2484L127.422 65.8258L127.957 65.8114L128.179 65.2782ZM224.996 65.2782L172.247 192.287H204.781C212.195 192.287 219.837 191.369 227.708 189.532C235.639 187.695 243.451 184.451 251.143 179.798C258.835 175.145 266.126 168.655 273.016 160.329C279.93 151.941 286.095 141.227 291.511 128.186C296.978 115.023 299.67 104.339 299.585 96.1354C299.525 87.8702 297.451 81.5029 293.364 77.0336C289.338 72.5642 283.962 69.5027 277.234 67.8496C270.532 66.1354 263.23 65.2782 255.326 65.2782H224.996ZM353.12 65.2782L260.574 192.287H286.584L306.579 163.175H348.396L344.209 192.287H370.955L384 65.2782H353.12ZM175.862 65.8712C176.053 65.8939 176.238 65.923 176.427 65.947C176.459 65.951 176.49 65.9551 176.521 65.9592C176.867 66.0035 177.212 66.0493 177.554 66.098C177.72 66.1217 177.891 66.1409 178.056 66.1655C177.457 65.9932 176.775 65.9085 175.862 65.8712ZM171.261 75.3964C167.552 75.3169 163.646 80.3453 165.898 83.436C166.187 83.833 166.566 84.1411 166.998 84.3695C166.961 84.3497 166.92 84.3351 166.884 84.3141C166.921 84.3355 166.962 84.3509 167 84.371C167.042 84.3936 167.086 84.4137 167.13 84.4347C167.337 84.5331 167.551 84.6194 167.779 84.6804C169.055 85.0222 170.616 84.774 171.97 83.8978C171.973 83.8957 171.977 83.8924 171.98 83.8902C172.164 83.7702 172.363 83.6162 172.568 83.4375C172.985 83.074 173.42 82.6148 173.775 82.1643C173.953 81.9392 174.111 81.7167 174.236 81.5091C174.236 81.5093 174.236 81.5089 174.236 81.5091C174.299 81.4038 174.338 81.3028 174.394 81.1989C175.502 79.1521 175.234 77.3839 173.63 76.2373C173.389 76.0652 173.119 75.9073 172.819 75.7641C172.316 75.5237 171.791 75.4077 171.261 75.3964ZM172.819 75.7641C173.119 75.9073 173.389 76.0652 173.63 76.2373C173.389 76.0652 173.12 75.9066 172.82 75.7634C172.695 75.7033 172.567 75.6512 172.439 75.6064C172.567 75.6513 172.693 75.704 172.819 75.7641ZM242.398 84.013H251.772C255.878 84.013 259.601 84.5641 262.942 85.6662C266.283 86.7682 268.806 88.8802 270.512 92.0026C272.243 95.0638 272.758 99.5023 272.058 105.319C271.419 111.135 269.142 118.758 265.226 128.186C260.192 140.308 254.831 149.676 249.144 156.288C243.543 162.839 237.832 167.37 232.01 169.88C226.188 172.39 220.397 173.645 214.638 173.645H205.171L242.398 84.013ZM360.281 84.1048L351.528 144.349H318.901L360.281 84.1048ZM74.2325 104.41C72.9851 104.37 71.5693 104.767 70.3394 105.651C68.7735 106.775 68.499 107.181 67.9572 109.172C67.4154 111.162 67.4688 111.568 68.4224 112.693C70.5024 115.146 75.0188 114.053 76.8887 110.644C77.7453 109.083 77.8342 108.448 77.4533 106.63C77.1614 105.236 75.8364 104.462 74.2325 104.41ZM72.2487 143.152C67.5966 143.152 64.0115 148.978 66.8917 151.858C68.057 153.024 70.9986 153.034 72.7815 151.88C77.3459 148.924 76.9937 143.152 72.2487 143.152ZM157.287 144.1C157.365 144.13 157.444 144.155 157.522 144.187C158.104 144.426 158.677 144.702 159.236 145.039C163.176 147.411 164.779 151.757 163.69 156.972C163.617 157.32 163.532 157.672 163.436 158.027C161.336 165.741 152.935 172.34 145.215 172.34C142.789 172.34 140.876 171.892 139.051 170.857C139.161 170.814 139.269 170.767 139.378 170.723C139.52 170.665 139.662 170.608 139.804 170.548C140.801 170.128 141.774 169.651 142.724 169.121C142.867 169.041 143.007 168.956 143.149 168.874C143.574 168.628 143.993 168.369 144.408 168.1C144.561 168.001 144.715 167.903 144.867 167.8C145.403 167.439 145.934 167.065 146.453 166.665C146.462 166.659 146.469 166.652 146.477 166.646C146.858 166.353 147.229 166.04 147.594 165.717C147.669 165.65 147.745 165.584 147.82 165.516C147.82 165.517 147.82 165.516 147.82 165.516C148.262 165.114 148.691 164.687 149.109 164.241C149.426 163.901 149.739 163.553 150.044 163.188C150.131 163.083 150.215 162.973 150.301 162.866C150.543 162.565 150.781 162.257 151.014 161.939C151.106 161.814 151.2 161.692 151.29 161.565C151.293 161.562 151.295 161.559 151.297 161.556C151.503 161.266 151.705 160.97 151.904 160.666C151.904 160.667 151.904 160.666 151.904 160.666C152.925 159.715 153.564 158.598 153.758 157.438C153.756 157.447 153.754 157.454 153.752 157.463C153.754 157.454 153.758 157.445 153.759 157.435C153.779 157.396 153.798 157.355 153.817 157.316C153.866 157.216 153.914 157.113 153.963 157.013C154.05 156.834 154.137 156.655 154.222 156.473C154.225 156.469 154.226 156.463 154.229 156.458C154.479 155.925 154.725 155.382 154.959 154.818C155.174 154.3 155.373 153.794 155.559 153.298C155.56 153.295 155.56 153.294 155.562 153.291C155.621 153.134 155.671 152.984 155.726 152.829C155.845 152.5 155.962 152.173 156.067 151.854C156.128 151.67 156.183 151.49 156.239 151.309C156.328 151.026 156.414 150.745 156.492 150.47C156.493 150.467 156.494 150.465 156.495 150.462C156.545 150.284 156.592 150.109 156.638 149.934C156.709 149.661 156.776 149.391 156.836 149.126C156.874 148.964 156.91 148.802 156.943 148.643C156.999 148.37 157.048 148.103 157.092 147.839C157.093 147.837 157.093 147.835 157.094 147.832C157.117 147.69 157.143 147.547 157.163 147.407C157.204 147.121 157.235 146.843 157.261 146.568C157.271 146.463 157.285 146.355 157.293 146.252C157.318 145.929 157.328 145.616 157.331 145.31C157.332 145.257 157.337 145.2 157.337 145.147C157.336 144.787 157.319 144.44 157.288 144.104C157.288 144.107 157.289 144.111 157.289 144.114C157.289 144.11 157.288 144.106 157.288 144.101L157.287 144.1ZM150.23 153.172C152.305 153.172 153.497 154.134 153.774 156.034C153.841 156.492 153.834 156.952 153.761 157.405C153.177 158.569 152.556 159.662 151.892 160.677C151.702 160.853 151.502 161.024 151.287 161.187C145.615 165.494 141.05 159.055 146.654 154.653C148.15 153.478 148.889 153.172 150.23 153.172Z" fill="#FEFBFD"/>
     </g>
     <defs>
          <clipPath id="clip0_5_185">
               <rect width="384" height="221" fill="white"/>
          </clipPath>
     </defs>
</svg>
